<svg width="29" height="29" viewBox="0 0 29 29" fill="none" xmlns="http://www.w3.org/2000/svg">
<path d="M8.9653 12.2257L14.5 6.691L20.0375 12.2285L23.258 9.00805L14.5 0.25L5.7448 9.0052L8.9653 12.2257ZM0.25 14.5L3.4705 11.2795L6.691 14.5L3.4705 17.7205L0.25 14.5ZM8.9653 16.7743L14.5 22.309L20.0375 16.7715L23.258 19.9905L14.5 28.75L5.7448 19.9948L5.74052 19.9905L8.9653 16.7743ZM22.309 14.5L25.5295 11.2795L28.75 14.5L25.5295 17.7205L22.309 14.5ZM17.7661 14.4971H17.7689V14.5L14.5 17.7689L11.2353 14.5057L11.2296 14.5L11.2353 14.4957L11.8067 13.9229L12.0846 13.645L14.5 11.2311L17.7675 14.4986L17.7661 14.4971Z" fill="#F3BA2F"/>
</svg>
