<svg width="23" height="29" viewBox="0 0 23 29" fill="none" xmlns="http://www.w3.org/2000/svg">
<path d="M22.2879 11.7077C22.7365 8.71328 20.4549 7.1032 17.3376 6.02886L18.3491 1.97151L15.8804 1.3572L14.8946 5.3074C14.246 5.14453 13.5803 4.99309 12.916 4.84166L13.9089 0.865745L11.4402 0.25L10.4287 4.30592C9.89153 4.18305 9.36293 4.06305 8.85148 3.93447L8.85433 3.92161L5.44845 3.07157L4.79127 5.70885C4.79127 5.70885 6.62422 6.12887 6.58565 6.15458C7.5857 6.40459 7.76571 7.06606 7.73571 7.5918L6.58422 12.2135C6.65279 12.2306 6.74137 12.2563 6.84137 12.2949L6.57993 12.2306L4.96557 18.7052C4.8427 19.0081 4.53269 19.4638 3.83265 19.291C3.85837 19.3267 2.03828 18.8438 2.03828 18.8438L0.8125 21.6696L4.02695 22.4711C4.62412 22.6211 5.20986 22.7783 5.78561 22.9254L4.76413 27.0285L7.23139 27.6428L8.24287 23.5855C8.91719 23.7669 9.57151 23.9355 10.2115 24.0955L9.20292 28.1357L11.6716 28.75L12.6931 24.6555C16.9047 25.4527 20.0706 25.1312 21.4035 21.3225C22.4779 18.2566 21.3507 16.4865 19.1348 15.3336C20.7492 14.9622 21.9636 13.9007 22.2879 11.7077ZM16.6447 19.6195C15.8833 22.6868 10.7187 21.0282 9.04434 20.6124L10.4016 15.1765C12.0759 15.5951 17.4433 16.4222 16.6447 19.6195ZM17.409 11.6634C16.7133 14.4536 12.4159 13.0349 11.023 12.6878L12.2516 7.75895C13.6446 8.10611 18.1348 8.75328 17.409 11.6634Z" fill="#F7931A"/>
</svg>
