<svg width="27" height="23" viewBox="0 0 27 23" fill="none" xmlns="http://www.w3.org/2000/svg">
<path d="M17.4994 0.8125H7.90562L7.11185 5.25206L15.7642 5.26524C20.0244 5.26524 21.2889 6.8119 21.248 9.37912C21.2296 10.695 20.656 12.9207 20.4134 13.638C19.7581 15.5631 18.4079 17.7545 13.3473 17.7479L4.93757 17.7427L4.1438 22.1875H13.7125C17.0867 22.1875 18.5239 21.7933 20.0415 21.0931C23.4091 19.5399 25.4146 16.2132 26.2203 11.8712C27.4149 5.41028 25.9249 0.8125 17.4981 0.8125H17.4994Z" fill="#008CE7"/>
<path d="M13.1757 11.0893C13.4882 9.79048 13.5871 9.26965 13.5871 9.26965H3.76921C1.25869 9.26965 0.900045 10.9047 0.661387 11.8936C0.348891 13.1871 0.25 13.7145 0.25 13.7145H10.0692C12.5784 13.7145 12.9371 12.0795 13.1757 11.0893Z" fill="#008CE7"/>
</svg>
