<svg width="23" height="24" viewBox="0 0 23 24" fill="none" xmlns="http://www.w3.org/2000/svg">
<path fill-rule="evenodd" clip-rule="evenodd" d="M6.8658 10.341H13.0132V13.5985H6.8658V20.464H10.7432C12.2779 20.464 13.5333 20.2574 14.5108 19.8413C15.4883 19.4266 16.255 18.8524 16.8121 18.1171C17.382 17.3524 17.7699 16.4679 17.9464 15.5307C18.1523 14.4736 18.2525 13.3986 18.2457 12.3217C18.2525 11.2447 18.1523 10.1698 17.9464 9.11264C17.7701 8.17543 17.3822 7.29084 16.8121 6.52631C16.255 5.79102 15.4869 5.21675 14.5108 4.80209C13.5333 4.38599 12.2779 4.17937 10.7432 4.17937H6.8658V10.3424V10.341ZM2.92432 13.5985H0.8125V10.3424H2.92432V0.921875H12.2565C13.9807 0.921875 15.4727 1.22112 16.7338 1.81534C17.9949 2.4124 19.0237 3.22606 19.8231 4.25917C20.6211 5.29085 21.2153 6.49923 21.6043 7.88289C21.9934 9.26654 22.1872 10.7471 22.1872 12.3217C22.1969 13.8211 22.0003 15.3147 21.6029 16.7605C21.2153 18.1427 20.6211 19.3525 19.8217 20.3842C19.0237 21.4173 17.9949 22.231 16.7338 22.828C15.4727 23.4237 13.9793 23.7215 12.2565 23.7215H2.92432V13.5985Z" fill="#C3A634"/>
</svg>
