<svg width="18" height="24" viewBox="0 0 18 24" fill="none" xmlns="http://www.w3.org/2000/svg">
<path d="M7.08075 19.1026L8.92195 12.8896L11.7608 12.0633L12.3646 10.0208L9.55138 10.8772L12.5487 0.67353C12.5699 0.59826 12.5733 0.519095 12.5587 0.442267C12.5442 0.365439 12.5119 0.293045 12.4646 0.230785C12.4173 0.168524 12.3562 0.118097 12.2861 0.0834733C12.2159 0.0488492 12.1387 0.0309735 12.0605 0.0312532H8.2497C8.10295 0.031513 7.96032 0.0797819 7.84358 0.168692C7.72684 0.257602 7.64239 0.382269 7.60314 0.523666L4.03208 12.5899L1.21462 13.4463L0.59375 15.4545L3.40693 14.5981L0.863507 23.1875H15.9056C16.0524 23.1877 16.1952 23.1402 16.3126 23.0522C16.43 22.9641 16.5156 22.8403 16.5565 22.6994L17.4129 19.7492C17.4348 19.674 17.4389 19.5947 17.4249 19.5177C17.4109 19.4406 17.3792 19.3678 17.3323 19.3051C17.2854 19.2424 17.2245 19.1915 17.1545 19.1564C17.0845 19.1212 17.0073 19.1028 16.929 19.1026H7.08075Z" fill="#365D99"/>
</svg>
