<svg width="25" height="24" viewBox="0 0 25 24" fill="none" xmlns="http://www.w3.org/2000/svg">
<path fill-rule="evenodd" clip-rule="evenodd" d="M15.0356 13.2693V13.2667C14.8936 13.277 14.1616 13.3209 12.5284 13.3209C11.2245 13.3209 10.3065 13.2822 9.98379 13.2667V13.2706C4.96427 13.0498 1.2177 12.1758 1.2177 11.13C1.2177 10.0856 4.96427 9.21157 9.98379 8.98693V12.4004C10.3117 12.4236 11.2516 12.4792 12.5504 12.4792C14.1086 12.4792 14.8897 12.4146 15.0356 12.4017V8.98951C20.0448 9.21286 23.7823 10.0869 23.7823 11.13C23.7823 12.1758 20.0448 13.0472 15.0356 13.2693ZM15.0356 8.63448V5.57991H22.0252V0.921875H2.99416V5.57991H9.98379V8.63319C4.30326 8.89397 0.03125 10.0198 0.03125 11.3676C0.03125 12.7154 4.30326 13.8399 9.98379 14.102V23.8906H15.0356V14.0994C20.7071 13.8386 24.9688 12.7141 24.9688 11.3676C24.9688 10.021 20.7071 8.89656 15.0356 8.63448Z" fill="#26A17B"/>
</svg>
