<svg width="29" height="29" viewBox="0 0 29 29" fill="none" xmlns="http://www.w3.org/2000/svg">
<path d="M14.4987 0.25C22.378 0.25 28.75 6.63079 28.75 14.5198C28.7447 16.0573 28.4967 17.5843 28.0154 19.0443H23.7683V7.0553L14.5 16.3365L5.23171 7.0553V19.0443H0.983301C0.502397 17.5842 0.254911 16.0572 0.25 14.5198C0.25 6.63079 6.62195 0.25 14.5 0.25H14.4987ZM12.3765 18.4234L14.5382 20.5525L16.6617 18.4247L20.6784 14.3642V21.9051H26.6646C25.3949 23.9963 23.6086 25.7247 21.4779 26.9236C19.3472 28.1225 16.944 28.7515 14.5 28.75C9.36294 28.75 4.84465 26.0052 2.33537 21.9051H8.32026V14.3642L12.3751 18.4247L12.3765 18.4234Z" fill="#FF6600"/>
</svg>
