<svg width="26" height="23" viewBox="0 0 26 23" fill="none" xmlns="http://www.w3.org/2000/svg">
<path d="M22.0605 0.8125H25.7902L18.0276 8.50017C16.6705 9.83732 14.8417 10.5869 12.9365 10.5869C11.0313 10.5869 9.20256 9.83732 7.84539 8.50017L0.0764182 0.8125H3.81249L9.7102 6.64955C10.569 7.49725 11.7272 7.97256 12.9339 7.97256C14.1407 7.97256 15.2988 7.49725 16.1577 6.64955L22.0605 0.8125ZM3.76733 22.1875H0.03125L7.84539 14.4534C9.20256 13.1162 11.0313 12.3667 12.9365 12.3667C14.8417 12.3667 16.6705 13.1162 18.0276 14.4534L25.8418 22.1862H22.1057L16.1628 16.2988C15.304 15.4511 14.1458 14.9758 12.9391 14.9758C11.7324 14.9758 10.5742 15.4511 9.71536 16.2988L3.76604 22.1875H3.76733Z" fill="#23292F"/>
</svg>
