<svg width="24" height="24" viewBox="0 0 24 24" fill="none" xmlns="http://www.w3.org/2000/svg">
<g clip-path="url(#clip0_85_61)">
<path d="M13.54 12.0002C13.5453 13.8019 12.8354 15.5321 11.566 16.8108C10.2967 18.0896 8.57177 18.8122 6.77003 18.8202C4.96829 18.8122 3.24335 18.0896 1.97402 16.8108C0.704678 15.5321 -0.00528713 13.8019 2.96483e-05 12.0002C-0.00528713 10.1984 0.704678 8.46822 1.97402 7.18951C3.24335 5.91079 4.96829 5.18812 6.77003 5.18018C8.57177 5.18812 10.2967 5.91079 11.566 7.18951C12.8354 8.46822 13.5453 10.1984 13.54 12.0002ZM20.96 12.0002C20.96 15.5402 19.45 18.4202 17.58 18.4202C15.71 18.4202 14.19 15.5402 14.19 12.0002C14.19 8.46018 15.71 5.58018 17.58 5.58018C19.45 5.58018 20.96 8.46018 20.96 12.0002ZM24 12.0002C24 15.1702 23.47 17.7502 22.81 17.7502C22.15 17.7502 21.62 15.1702 21.62 12.0002C21.62 8.83018 22.15 6.25018 22.81 6.25018C23.47 6.25018 24 8.83018 24 12.0002Z" fill="#91919D"/>
</g>
<defs>
<clipPath id="clip0_85_61">
<rect width="24" height="24" fill="white"/>
</clipPath>
</defs>
</svg>
